<?xml version="1.0" standalone="no"?>
<!DOCTYPE svg PUBLIC "-//W3C//DTD SVG 20010904//EN"
 "http://www.w3.org/TR/2001/REC-SVG-20010904/DTD/svg10.dtd">
<svg version="1.0" xmlns="http://www.w3.org/2000/svg"
 width="814.000000pt" height="672.000000pt" viewBox="0 0 814.000000 672.000000"
 preserveAspectRatio="xMidYMid meet">

<g transform="translate(0.000000,672.000000) scale(0.100000,-0.100000)"
fill="white" stroke="none">
<path d="M7274 6709 c-3 -6 -30 -22 -58 -35 -38 -18 -68 -24 -121 -24 l-70 0
-190 -307 c-104 -168 -196 -314 -205 -324 -14 -18 -112 -18 -2654 -8 -1451 5
-2640 8 -2642 6 -3 -2 125 -213 284 -468 158 -255 423 -682 589 -949 165 -267
477 -771 694 -1120 216 -349 571 -923 789 -1274 218 -352 400 -641 406 -643 5
-1 69 95 143 215 138 222 603 972 1061 1712 141 228 427 690 635 1025 208 336
472 762 587 948 l210 337 201 0 202 0 70 90 c39 50 72 95 73 100 2 6 -76 10
-207 10 -116 0 -211 2 -211 4 0 2 89 147 198 322 108 176 208 336 221 357 12
20 18 37 12 37 -5 0 -13 -5 -17 -11z m-1134 -908 l355 -6 -527 -850 c-290
-467 -830 -1337 -1199 -1932 l-672 -1081 -287 461 c-157 254 -699 1127 -1203
1939 -504 812 -917 1479 -917 1482 0 7 3975 -4 4450 -13z"/>
<path d="M200 2602 l0 -2392 448 0 c882 0 2942 13 2942 19 0 3 -81 119 -178
256 -306 429 -1449 2038 -2330 3280 -464 655 -853 1199 -863 1210 -19 19 -19
-31 -19 -2373z m1555 -132 c730 -1031 1354 -1912 1387 -1957 32 -44 58 -84 58
-87 0 -3 -630 -6 -1400 -6 l-1400 0 0 1977 c0 1662 2 1975 14 1963 7 -8 611
-859 1341 -1890z"/>
<path d="M7851 4871 c-72 -102 -2062 -2905 -2436 -3431 -572 -804 -867 -1221
-864 -1224 2 -2 765 -5 1694 -7 l1690 -4 3 2379 c1 1309 -1 2383 -5 2387 -5 4
-41 -41 -82 -100z m-111 -2486 l0 -1975 -1400 0 c-770 0 -1400 2 -1400 5 0 3
203 292 452 643 248 350 736 1038 1083 1527 1155 1630 1258 1775 1262 1775 1
0 3 -889 3 -1975z"/>
</g>
</svg>
